<svg  width="406" height="120" viewBox="0 0 406 120" fill="none" xmlns="http://www.w3.org/2000/svg">
<rect x="3.5" y="3.5" width="380" height="98" fill="#627EFD" stroke="white" stroke-width="7"/>
<rect x="11" y="12" width="395" height="108" fill="#FFCC17"/>
<path d="M126.754 79L137.986 53.8H143.746L155.014 79H148.894L139.678 56.752H141.982L132.73 79H126.754ZM132.37 73.6L133.918 69.172H146.878L148.462 73.6H132.37ZM157.629 79V53.8H162.453L177.321 71.944H174.981V53.8H180.741V79H175.953L161.049 60.856H163.389V79H157.629ZM186.703 79V53.8H191.527L206.395 71.944H204.055V53.8H209.815V79H205.027L190.123 60.856H192.463V79H186.703ZM226.973 79.432C223.397 79.432 220.601 78.436 218.585 76.444C216.569 74.452 215.561 71.608 215.561 67.912V53.8H221.393V67.696C221.393 70.096 221.885 71.824 222.869 72.88C223.853 73.936 225.233 74.464 227.009 74.464C228.785 74.464 230.165 73.936 231.149 72.88C232.133 71.824 232.625 70.096 232.625 67.696V53.8H238.385V67.912C238.385 71.608 237.377 74.452 235.361 76.444C233.345 78.436 230.549 79.432 226.973 79.432ZM240.309 79L251.541 53.8H257.301L268.569 79H262.449L253.233 56.752H255.537L246.285 79H240.309ZM245.925 73.6L247.473 69.172H260.433L262.017 73.6H245.925ZM271.183 79V53.8H277.015V74.248H289.651V79H271.183Z" fill="black"/>
</svg>