<svg viewBox="0 0 409 120" fill="none" xmlns="http://www.w3.org/2000/svg">
                            <rect x="3.5" y="3.5" width="380" height="98" fill="#627EFD" stroke="white" stroke-width="7"/>
                            <rect x="14" y="12" width="395" height="108" fill="#FFCC17"/>
                            <path d="M47.5031 78.432C45.5591 78.432 43.7471 78.12 42.0671 77.496C40.4111 76.848 38.9711 75.936 37.7471 74.76C36.5231 73.584 35.5631 72.204 34.8671 70.62C34.1951 69.036 33.8591 67.296 33.8591 65.4C33.8591 63.504 34.1951 61.764 34.8671 60.18C35.5631 58.596 36.5231 57.216 37.7471 56.04C38.9951 54.864 40.4471 53.964 42.1031 53.34C43.7591 52.692 45.5711 52.368 47.5391 52.368C49.7231 52.368 51.6911 52.752 53.4431 53.52C55.2191 54.264 56.7071 55.368 57.9071 56.832L54.1631 60.288C53.2991 59.304 52.3391 58.572 51.2831 58.092C50.2271 57.588 49.0751 57.336 47.8271 57.336C46.6511 57.336 45.5711 57.528 44.5871 57.912C43.6031 58.296 42.7511 58.848 42.0311 59.568C41.3111 60.288 40.7471 61.14 40.3391 62.124C39.9551 63.108 39.7631 64.2 39.7631 65.4C39.7631 66.6 39.9551 67.692 40.3391 68.676C40.7471 69.66 41.3111 70.512 42.0311 71.232C42.7511 71.952 43.6031 72.504 44.5871 72.888C45.5711 73.272 46.6511 73.464 47.8271 73.464C49.0751 73.464 50.2271 73.224 51.2831 72.744C52.3391 72.24 53.2991 71.484 54.1631 70.476L57.9071 73.932C56.7071 75.396 55.2191 76.512 53.4431 77.28C51.6911 78.048 49.7111 78.432 47.5031 78.432ZM67.2094 62.952H79.3414V67.488H67.2094V62.952ZM67.6414 73.32H81.3574V78H61.8454V52.8H80.8894V57.48H67.6414V73.32ZM91.2178 78V57.552H83.1538V52.8H105.114V57.552H97.0498V78H91.2178ZM103.674 78L114.906 52.8H120.666L131.934 78H125.814L116.598 55.752H118.902L109.65 78H103.674ZM109.29 72.6L110.838 68.172H123.798L125.382 72.6H109.29ZM139.769 72.24L139.445 65.508L151.505 52.8H157.985L147.113 64.5L143.873 67.956L139.769 72.24ZM134.549 78V52.8H140.345V78H134.549ZM151.793 78L142.829 67.02L146.645 62.88L158.597 78H151.793ZM179.672 78.432C177.656 78.432 175.724 78.168 173.876 77.64C172.028 77.088 170.54 76.38 169.412 75.516L171.392 71.124C172.472 71.892 173.744 72.528 175.208 73.032C176.696 73.512 178.196 73.752 179.708 73.752C180.86 73.752 181.784 73.644 182.48 73.428C183.2 73.188 183.728 72.864 184.064 72.456C184.4 72.048 184.568 71.58 184.568 71.052C184.568 70.38 184.304 69.852 183.776 69.468C183.248 69.06 182.552 68.736 181.688 68.496C180.824 68.232 179.864 67.992 178.808 67.776C177.776 67.536 176.732 67.248 175.676 66.912C174.644 66.576 173.696 66.144 172.832 65.616C171.968 65.088 171.26 64.392 170.708 63.528C170.18 62.664 169.916 61.56 169.916 60.216C169.916 58.776 170.3 57.468 171.068 56.292C171.86 55.092 173.036 54.144 174.596 53.448C176.18 52.728 178.16 52.368 180.536 52.368C182.12 52.368 183.68 52.56 185.216 52.944C186.752 53.304 188.108 53.856 189.284 54.6L187.484 59.028C186.308 58.356 185.132 57.864 183.956 57.552C182.78 57.216 181.628 57.048 180.5 57.048C179.372 57.048 178.448 57.18 177.728 57.444C177.008 57.708 176.492 58.056 176.18 58.488C175.868 58.896 175.712 59.376 175.712 59.928C175.712 60.576 175.976 61.104 176.504 61.512C177.032 61.896 177.728 62.208 178.592 62.448C179.456 62.688 180.404 62.928 181.436 63.168C182.492 63.408 183.536 63.684 184.568 63.996C185.624 64.308 186.584 64.728 187.448 65.256C188.312 65.784 189.008 66.48 189.536 67.344C190.088 68.208 190.364 69.3 190.364 70.62C190.364 72.036 189.968 73.332 189.176 74.508C188.384 75.684 187.196 76.632 185.612 77.352C184.052 78.072 182.072 78.432 179.672 78.432ZM199.713 62.952H211.845V67.488H199.713V62.952ZM200.145 73.32H213.861V78H194.349V52.8H213.393V57.48H200.145V73.32ZM218.502 78V52.8H229.41C231.666 52.8 233.61 53.172 235.242 53.916C236.874 54.636 238.134 55.68 239.022 57.048C239.91 58.416 240.354 60.048 240.354 61.944C240.354 63.816 239.91 65.436 239.022 66.804C238.134 68.148 236.874 69.18 235.242 69.9C233.61 70.62 231.666 70.98 229.41 70.98H221.742L224.334 68.424V78H218.502ZM234.522 78L228.222 68.856H234.45L240.822 78H234.522ZM224.334 69.072L221.742 66.336H229.086C230.886 66.336 232.23 65.952 233.118 65.184C234.006 64.392 234.45 63.312 234.45 61.944C234.45 60.552 234.006 59.472 233.118 58.704C232.23 57.936 230.886 57.552 229.086 57.552H221.742L224.334 54.78V69.072ZM249.843 78V57.552H241.779V52.8H263.739V57.552H255.675V78H249.843ZM266.877 78V52.8H272.709V78H266.877ZM284.089 64.14H296.185V68.82H284.089V64.14ZM284.521 78H278.689V52.8H297.733V57.48H284.521V78ZM301.681 78V52.8H307.513V78H301.681ZM318.714 72.24L318.39 65.508L330.45 52.8H336.93L326.058 64.5L322.818 67.956L318.714 72.24ZM313.494 78V52.8H319.29V78H313.494ZM330.738 78L321.774 67.02L325.59 62.88L337.542 78H330.738ZM335.67 78L346.902 52.8H352.662L363.93 78H357.81L348.594 55.752H350.898L341.646 78H335.67ZM341.286 72.6L342.834 68.172H355.794L357.378 72.6H341.286ZM370.499 78V57.552H362.435V52.8H384.395V57.552H376.331V78H370.499Z" fill="black"/>
                            </svg>