<svg  width="406" height="120" viewBox="0 0 406 120" fill="none" xmlns="http://www.w3.org/2000/svg">
<rect x="3.5" y="3.5" width="380" height="98" fill="#627EFD" stroke="white" stroke-width="7"/>
<rect x="11" y="12" width="395" height="108" fill="#FFCC17"/>
<path d="M117.181 79V53.8H122.005L132.733 71.584H130.177L140.725 53.8H145.513L145.585 79H140.113L140.077 62.188H141.085L132.661 76.336H130.033L121.429 62.188H122.653V79H117.181ZM163.804 79.432C161.812 79.432 159.964 79.108 158.26 78.46C156.58 77.812 155.116 76.9 153.868 75.724C152.644 74.548 151.684 73.168 150.988 71.584C150.316 70 149.98 68.272 149.98 66.4C149.98 64.528 150.316 62.8 150.988 61.216C151.684 59.632 152.656 58.252 153.904 57.076C155.152 55.9 156.616 54.988 158.296 54.34C159.976 53.692 161.8 53.368 163.768 53.368C165.76 53.368 167.584 53.692 169.24 54.34C170.92 54.988 172.372 55.9 173.596 57.076C174.844 58.252 175.816 59.632 176.512 61.216C177.208 62.776 177.556 64.504 177.556 66.4C177.556 68.272 177.208 70.012 176.512 71.62C175.816 73.204 174.844 74.584 173.596 75.76C172.372 76.912 170.92 77.812 169.24 78.46C167.584 79.108 165.772 79.432 163.804 79.432ZM163.768 74.464C164.896 74.464 165.928 74.272 166.864 73.888C167.824 73.504 168.664 72.952 169.384 72.232C170.104 71.512 170.656 70.66 171.04 69.676C171.448 68.692 171.652 67.6 171.652 66.4C171.652 65.2 171.448 64.108 171.04 63.124C170.656 62.14 170.104 61.288 169.384 60.568C168.688 59.848 167.86 59.296 166.9 58.912C165.94 58.528 164.896 58.336 163.768 58.336C162.64 58.336 161.596 58.528 160.636 58.912C159.7 59.296 158.872 59.848 158.152 60.568C157.432 61.288 156.868 62.14 156.46 63.124C156.076 64.108 155.884 65.2 155.884 66.4C155.884 67.576 156.076 68.668 156.46 69.676C156.868 70.66 157.42 71.512 158.116 72.232C158.836 72.952 159.676 73.504 160.636 73.888C161.596 74.272 162.64 74.464 163.768 74.464ZM181.939 79V53.8H186.763L201.631 71.944H199.291V53.8H205.051V79H200.263L185.359 60.856H187.699V79H181.939ZM216.233 79V58.552H208.169V53.8H230.129V58.552H222.065V79H216.233ZM250.547 53.8H256.379V79H250.547V53.8ZM239.099 79H233.267V53.8H239.099V79ZM250.979 68.668H238.667V63.736H250.979V68.668ZM262.342 79V53.8H268.174V74.248H280.81V79H262.342ZM287.731 79V68.704L289.063 72.232L277.975 53.8H284.167L292.663 67.948H289.099L297.631 53.8H303.355L292.267 72.232L293.563 68.704V79H287.731Z" fill="black"/>
</svg>