<svg width="409" height="120" viewBox="0 0 409 120" fill="none" xmlns="http://www.w3.org/2000/svg">
<rect x="3.5" y="3.5" width="380" height="98" fill="#627EFD" stroke="white" stroke-width="7"/>
<rect x="14" y="12" width="395" height="108" fill="#FFCC17"/>
<path d="M52.4228 78V57.552H44.3588V52.8H66.3188V57.552H58.2548V78H52.4228ZM80.2309 78.432C76.6549 78.432 73.8589 77.436 71.8429 75.444C69.8269 73.452 68.8189 70.608 68.8189 66.912V52.8H74.6509V66.696C74.6509 69.096 75.1429 70.824 76.1269 71.88C77.1109 72.936 78.4909 73.464 80.2669 73.464C82.0429 73.464 83.4229 72.936 84.4069 71.88C85.3909 70.824 85.8829 69.096 85.8829 66.696V52.8H91.6429V66.912C91.6429 70.608 90.6349 73.452 88.6189 75.444C86.6029 77.436 83.8069 78.432 80.2309 78.432ZM102.626 72.24L102.302 65.508L114.362 52.8H120.842L109.97 64.5L106.73 67.956L102.626 72.24ZM97.406 78V52.8H103.202V78H97.406ZM114.65 78L105.686 67.02L109.502 62.88L121.454 78H114.65ZM129.418 62.952H141.55V67.488H129.418V62.952ZM129.85 73.32H143.566V78H124.054V52.8H143.098V57.48H129.85V73.32ZM148.207 78V52.8H159.115C161.371 52.8 163.315 53.172 164.947 53.916C166.579 54.636 167.839 55.68 168.727 57.048C169.615 58.416 170.059 60.048 170.059 61.944C170.059 63.816 169.615 65.436 168.727 66.804C167.839 68.148 166.579 69.18 164.947 69.9C163.315 70.62 161.371 70.98 159.115 70.98H151.447L154.039 68.424V78H148.207ZM164.227 78L157.927 68.856H164.155L170.527 78H164.227ZM154.039 69.072L151.447 66.336H158.791C160.591 66.336 161.935 65.952 162.823 65.184C163.711 64.392 164.155 63.312 164.155 61.944C164.155 60.552 163.711 59.472 162.823 58.704C161.935 57.936 160.591 57.552 158.791 57.552H151.447L154.039 54.78V69.072ZM192.435 78L181.563 52.8H187.863L197.367 75.12H193.659L203.307 52.8H209.103L198.195 78H192.435ZM223.166 78.432C221.174 78.432 219.326 78.108 217.622 77.46C215.942 76.812 214.478 75.9 213.229 74.724C212.006 73.548 211.046 72.168 210.35 70.584C209.678 69 209.342 67.272 209.342 65.4C209.342 63.528 209.678 61.8 210.35 60.216C211.046 58.632 212.018 57.252 213.266 56.076C214.514 54.9 215.978 53.988 217.658 53.34C219.338 52.692 221.162 52.368 223.13 52.368C225.122 52.368 226.945 52.692 228.602 53.34C230.282 53.988 231.734 54.9 232.958 56.076C234.206 57.252 235.178 58.632 235.874 60.216C236.57 61.776 236.918 63.504 236.918 65.4C236.918 67.272 236.57 69.012 235.874 70.62C235.178 72.204 234.206 73.584 232.958 74.76C231.734 75.912 230.282 76.812 228.602 77.46C226.945 78.108 225.133 78.432 223.166 78.432ZM223.13 73.464C224.258 73.464 225.29 73.272 226.226 72.888C227.186 72.504 228.026 71.952 228.746 71.232C229.466 70.512 230.018 69.66 230.402 68.676C230.81 67.692 231.014 66.6 231.014 65.4C231.014 64.2 230.81 63.108 230.402 62.124C230.018 61.14 229.466 60.288 228.746 59.568C228.05 58.848 227.222 58.296 226.262 57.912C225.302 57.528 224.258 57.336 223.13 57.336C222.002 57.336 220.958 57.528 219.998 57.912C219.062 58.296 218.234 58.848 217.514 59.568C216.794 60.288 216.23 61.14 215.822 62.124C215.438 63.108 215.246 64.2 215.246 65.4C215.246 66.576 215.438 67.668 215.822 68.676C216.23 69.66 216.782 70.512 217.478 71.232C218.198 71.952 219.038 72.504 219.998 72.888C220.958 73.272 222.002 73.464 223.13 73.464ZM252.497 78.432C248.921 78.432 246.125 77.436 244.109 75.444C242.093 73.452 241.085 70.608 241.085 66.912V52.8H246.917V66.696C246.917 69.096 247.409 70.824 248.393 71.88C249.377 72.936 250.757 73.464 252.533 73.464C254.309 73.464 255.689 72.936 256.673 71.88C257.657 70.824 258.148 69.096 258.148 66.696V52.8H263.909V66.912C263.909 70.608 262.901 73.452 260.885 75.444C258.869 77.436 256.073 78.432 252.497 78.432ZM281.732 78.432C279.788 78.432 277.976 78.12 276.296 77.496C274.64 76.848 273.2 75.936 271.976 74.76C270.752 73.584 269.792 72.204 269.096 70.62C268.424 69.036 268.088 67.296 268.088 65.4C268.088 63.504 268.424 61.764 269.096 60.18C269.792 58.596 270.752 57.216 271.976 56.04C273.224 54.864 274.676 53.964 276.332 53.34C277.988 52.692 279.8 52.368 281.768 52.368C283.952 52.368 285.92 52.752 287.672 53.52C289.448 54.264 290.936 55.368 292.136 56.832L288.392 60.288C287.528 59.304 286.568 58.572 285.512 58.092C284.456 57.588 283.304 57.336 282.056 57.336C280.88 57.336 279.8 57.528 278.816 57.912C277.832 58.296 276.98 58.848 276.26 59.568C275.54 60.288 274.976 61.14 274.568 62.124C274.184 63.108 273.992 64.2 273.992 65.4C273.992 66.6 274.184 67.692 274.568 68.676C274.976 69.66 275.54 70.512 276.26 71.232C276.98 71.952 277.832 72.504 278.816 72.888C279.8 73.272 280.88 73.464 282.056 73.464C283.304 73.464 284.456 73.224 285.512 72.744C286.568 72.24 287.528 71.484 288.392 70.476L292.136 73.932C290.936 75.396 289.448 76.512 287.672 77.28C285.92 78.048 283.94 78.432 281.732 78.432ZM313.354 52.8H319.186V78H313.354V52.8ZM301.906 78H296.074V52.8H301.906V78ZM313.786 67.668H301.474V62.736H313.786V67.668ZM330.512 62.952H342.644V67.488H330.512V62.952ZM330.944 73.32H344.66V78H325.148V52.8H344.192V57.48H330.944V73.32ZM349.301 78V52.8H360.209C362.465 52.8 364.409 53.172 366.041 53.916C367.673 54.636 368.933 55.68 369.821 57.048C370.709 58.416 371.153 60.048 371.153 61.944C371.153 63.816 370.709 65.436 369.821 66.804C368.933 68.148 367.673 69.18 366.041 69.9C364.409 70.62 362.465 70.98 360.209 70.98H352.541L355.133 68.424V78H349.301ZM365.32 78L359.021 68.856H365.249L371.621 78H365.32ZM355.133 69.072L352.541 66.336H359.885C361.685 66.336 363.029 65.952 363.917 65.184C364.805 64.392 365.249 63.312 365.249 61.944C365.249 60.552 364.805 59.472 363.917 58.704C363.029 57.936 361.685 57.552 359.885 57.552H352.541L355.133 54.78V69.072Z" fill="black"/>
</svg>