<svg width="85" height="85" viewBox="0 0 85 85" fill="none" xmlns="http://www.w3.org/2000/svg">
<path fill-rule="evenodd" clip-rule="evenodd" d="M26.4385 3.7755C30.5929 3.58425 31.9175 3.54175 42.5 3.54175C53.0825 3.54175 54.407 3.58779 58.5579 3.7755C62.7087 3.96321 65.542 4.6255 68.0212 5.58529C70.6173 6.56633 72.9725 8.09987 74.9204 10.0832C76.9037 12.0276 78.4337 14.3792 79.4112 16.9788C80.3745 19.458 81.0333 22.2913 81.2245 26.4351C81.4158 30.5965 81.4583 31.9211 81.4583 42.5001C81.4583 53.0826 81.4123 54.4072 81.2245 58.5615C81.0368 62.7053 80.3745 65.5386 79.4112 68.0178C78.4337 70.6177 76.9012 72.9733 74.9204 74.9205C72.9725 76.9038 70.6173 78.4338 68.0212 79.4113C65.542 80.3747 62.7087 81.0334 58.565 81.2247C54.407 81.4159 53.0825 81.4584 42.5 81.4584C31.9175 81.4584 30.5929 81.4124 26.4385 81.2247C22.2948 81.037 19.4614 80.3747 16.9823 79.4113C14.3824 78.4337 12.0268 76.9012 10.0795 74.9205C8.09756 72.975 6.56378 70.6205 5.58517 68.0213C4.62538 65.5422 3.96663 62.7088 3.77538 58.5651C3.58413 54.4036 3.54163 53.079 3.54163 42.5001C3.54163 31.9176 3.58767 30.593 3.77538 26.4422C3.96308 22.2913 4.62538 19.458 5.58517 16.9788C6.56523 14.3795 8.10017 12.0252 10.0831 10.0797C12.0276 8.09811 14.3808 6.56436 16.9787 5.58529C19.4579 4.6255 22.2912 3.96675 26.435 3.7755H26.4385ZM58.2427 10.788C54.1343 10.6003 52.9018 10.5613 42.5 10.5613C32.0981 10.5613 30.8656 10.6003 26.7573 10.788C22.957 10.9615 20.8958 11.5955 19.5216 12.1303C17.7048 12.8386 16.405 13.678 15.0414 15.0415C13.7489 16.299 12.7541 17.8298 12.1302 19.5217C11.5954 20.8959 10.9614 22.9572 10.7879 26.7574C10.6002 30.8657 10.5612 32.0982 10.5612 42.5001C10.5612 52.902 10.6002 54.1345 10.7879 58.2428C10.9614 62.043 11.5954 64.1043 12.1302 65.4784C12.7535 67.1678 13.7487 68.7013 15.0414 69.9586C16.2987 71.2513 17.8323 72.2466 19.5216 72.8699C20.8958 73.4047 22.957 74.0386 26.7573 74.2122C30.8656 74.3999 32.0945 74.4388 42.5 74.4388C52.9054 74.4388 54.1343 74.3999 58.2427 74.2122C62.0429 74.0386 64.1041 73.4047 65.4783 72.8699C67.2952 72.1615 68.595 71.3222 69.9585 69.9586C71.2512 68.7013 72.2464 67.1678 72.8698 65.4784C73.4045 64.1043 74.0385 62.043 74.2121 58.2428C74.3998 54.1345 74.4387 52.902 74.4387 42.5001C74.4387 32.0982 74.3998 30.8657 74.2121 26.7574C74.0385 22.9572 73.4045 20.8959 72.8698 19.5217C72.1614 17.7049 71.3221 16.4051 69.9585 15.0415C68.701 13.7491 67.1702 12.7544 65.4783 12.1303C64.1041 11.5955 62.0429 10.9615 58.2427 10.788ZM37.5239 54.5099C40.3029 55.6667 43.3973 55.8228 46.2787 54.9516C49.16 54.0804 51.6495 52.2358 53.3219 49.733C54.9944 47.2302 55.746 44.2244 55.4485 41.229C55.1509 38.2336 53.8227 35.4344 51.6906 33.3095C50.3314 31.9511 48.688 30.9111 46.8786 30.2641C45.0693 29.6172 43.139 29.3795 41.2267 29.5681C39.3145 29.7567 37.4678 30.367 35.8197 31.3549C34.1716 32.3429 32.763 33.684 31.6954 35.2816C30.6278 36.8793 29.9277 38.6938 29.6455 40.5945C29.3634 42.4952 29.5061 44.4349 30.0635 46.2738C30.621 48.1127 31.5792 49.8052 32.8692 51.2293C34.1592 52.6535 35.7489 53.7739 37.5239 54.5099ZM28.3404 28.3405C30.1998 26.481 32.4073 25.006 34.8369 23.9997C37.2664 22.9934 39.8703 22.4754 42.5 22.4754C45.1296 22.4754 47.7336 22.9934 50.1631 23.9997C52.5926 25.006 54.8001 26.481 56.6595 28.3405C58.519 30.2 59.994 32.4075 61.0004 34.837C62.0067 37.2665 62.5246 39.8704 62.5246 42.5001C62.5246 45.1298 62.0067 47.7337 61.0004 50.1632C59.994 52.5927 58.519 54.8002 56.6595 56.6597C52.9042 60.415 47.8108 62.5248 42.5 62.5248C37.1891 62.5248 32.0957 60.415 28.3404 56.6597C24.585 52.9043 22.4753 47.811 22.4753 42.5001C22.4753 37.1892 24.585 32.0959 28.3404 28.3405ZM66.9658 25.4576C67.4266 25.0229 67.7955 24.5002 68.0506 23.9204C68.3058 23.3406 68.442 22.7155 68.4512 22.0821C68.4605 21.4487 68.3425 20.8199 68.1044 20.233C67.8662 19.646 67.5127 19.1127 67.0648 18.6648C66.6169 18.2169 66.0837 17.8634 65.4967 17.6252C64.9097 17.3871 64.2809 17.2692 63.6475 17.2784C63.0141 17.2876 62.389 17.4239 61.8092 17.679C61.2294 17.9342 60.7067 18.303 60.272 18.7638C59.4267 19.66 58.9639 20.8503 58.9818 22.0821C58.9998 23.3139 59.4971 24.4903 60.3682 25.3614C61.2393 26.2325 62.4157 26.7299 63.6475 26.7478C64.8793 26.7658 66.0697 26.3029 66.9658 25.4576Z" fill="white"/>
</svg>
