<svg  viewBox="0 0 85 65" fill="none" xmlns="http://www.w3.org/2000/svg">
<path d="M85 7.71019C81.8742 9.01311 78.5163 9.89346 74.9861 10.2914C78.6286 8.24119 81.3536 5.01443 82.6528 1.21319C79.2307 3.12528 75.4853 4.47118 71.5795 5.19238C68.953 2.55437 65.4741 0.805855 61.6829 0.218301C57.8918 -0.369254 54.0004 0.237025 50.6131 1.94301C47.2257 3.649 44.5319 6.35924 42.9498 9.65296C41.3677 12.9467 40.9859 16.6396 41.8636 20.1584C34.9295 19.8309 28.146 18.1355 21.9535 15.1823C15.761 12.2291 10.2978 8.08403 5.91848 3.01615C4.42108 5.44592 3.56007 8.26305 3.56007 11.2633C3.5584 13.9642 4.26547 16.6237 5.61855 19.0059C6.97162 21.3881 8.92886 23.4193 11.3166 24.9193C8.54745 24.8364 5.83939 24.1326 3.41782 22.8663V23.0776C3.41754 26.8657 4.81053 30.5373 7.36041 33.4693C9.9103 36.4013 13.46 38.4131 17.4073 39.1634C14.8384 39.8174 12.1452 39.9137 9.53096 39.4451C10.6446 42.7046 12.814 45.5549 15.7353 47.5969C18.6566 49.639 22.1837 50.7706 25.8227 50.8334C19.6453 55.395 12.0162 57.8694 4.16278 57.8586C2.77162 57.8589 1.38164 57.7825 0 57.6297C7.9717 62.4511 17.2513 65.0099 26.7286 65C58.8104 65 76.3488 40.005 76.3488 18.3272C76.3488 17.6229 76.33 16.9116 76.2964 16.2073C79.7078 13.8866 82.6525 11.0129 84.9925 7.72075L85 7.71019Z" fill="white"/>
</svg>
