<svg width="85" height="85" viewBox="0 0 85 85" fill="none" xmlns="http://www.w3.org/2000/svg">
<path fill-rule="evenodd" clip-rule="evenodd" d="M61.6781 50.9364C60.6227 50.4087 55.4483 47.8658 54.485 47.5116C53.5217 47.161 52.8204 46.9874 52.1156 48.0429C51.4144 49.0912 49.3992 51.4641 48.7865 52.1654C48.1702 52.8701 47.5575 52.9551 46.5056 52.431C45.4537 51.8997 42.0608 50.7912 38.041 47.207C34.9137 44.4162 32.7994 40.9701 32.1867 39.9147C31.574 38.8629 32.1194 38.2926 32.6471 37.7685C33.1217 37.2974 33.699 36.5395 34.2267 35.9268C34.7544 35.3106 34.9279 34.8714 35.2785 34.1666C35.6327 33.4654 35.4556 32.8526 35.19 32.3249C34.9279 31.7972 32.8242 26.6158 31.9458 24.5085C31.0923 22.4579 30.2246 22.7376 29.58 22.7022C28.9637 22.6739 28.2625 22.6668 27.5612 22.6668C26.86 22.6668 25.7196 22.9289 24.7562 23.9843C23.7894 25.0362 21.0729 27.5826 21.0729 32.7641C21.0729 37.942 24.8412 42.9464 25.369 43.6512C25.8967 44.3524 32.7887 54.9845 43.3465 59.5426C45.861 60.6264 47.8196 61.2745 49.346 61.7562C51.8677 62.5601 54.1627 62.4468 55.976 62.1741C57.9948 61.8731 62.2023 59.6276 63.0806 57.1697C63.9554 54.7118 63.9554 52.6045 63.6933 52.1654C63.4312 51.7262 62.73 51.4641 61.6746 50.9364H61.6781ZM42.4752 77.1553H42.461C36.1903 77.1565 30.0346 75.4708 24.6394 72.2749L23.3644 71.517L10.1115 74.9949L13.6496 62.0749L12.8173 60.7504C9.31153 55.1699 7.45625 48.7114 7.46583 42.1212C7.47292 22.8191 23.1767 7.11535 42.4894 7.11535C51.8394 7.11535 60.6298 10.7633 67.2385 17.3791C70.4982 20.6253 73.0818 24.4857 74.8399 28.7369C76.598 32.988 77.4957 37.5456 77.481 42.146C77.474 61.4481 61.7702 77.1553 42.4752 77.1553ZM72.2677 12.3535C68.3655 8.4255 63.7225 5.31101 58.6078 3.19048C53.4931 1.06995 48.0085 -0.0144367 42.4717 0.000145129C19.2596 0.000145129 0.36125 18.8949 0.354167 42.1176C0.343411 49.5082 2.28216 56.7709 5.97479 63.1729L0 85.0001L22.3267 79.1422C28.5029 82.5072 35.4241 84.2704 42.4575 84.2706H42.4752C65.6873 84.2706 84.5856 65.3758 84.5927 42.1495C84.6098 36.6149 83.5294 31.1318 81.4138 26.0173C79.2983 20.9029 76.1896 16.2588 72.2677 12.3535Z" fill="white"/>
</svg>
